{"title":"The Addams Family(1991)MPEG-4[DaScubaDude]","uid":15121050,"size":1113470059,"categoryP":"video","categoryS":"movies","magnet":"?xt=urn:btih:9fc161fec37b717839d765ee2ed036ea9dec4cba&amp;dn=The+Addams+Family%281991%29MPEG-4%5BDaScubaDude%5D&amp;tr=udp%3A%2F%2Ftracker.leechers-paradise.org%3A6969&amp;tr=udp%3A%2F%2Fzer0day.ch%3A1337&amp;tr=udp%3A%2F%2Fopen.demonii.com%3A1337&amp;tr=udp%3A%2F%2Ftracker.coppersurfer.tk%3A6969&amp;tr=udp%3A%2F%2Fexodus.desync.com%3A6969","seeders":1,"leechers":0,"uploader":"dascuba","files":1,"time":1467073663,"description":"The Addams Family (1991)\r\nPG-13 | 1h 39min | Comedy, Fantasy | 22 November 1991 (USA)\r\nCon artists plan to fleece the eccentric family using an accomplice who claims to be their long lost Uncle Fester.\r\nDirector: Barry Sonnenfeld\r\nWriters: Charles Addams (characters), Caroline Thompson | \r\nStars: Anjelica Huston, Raul Julia, Christopher Lloyd\r\n\r\nGeneral\r\nComplete name                            : The Addams FamADDAMSFAMILY_Title1.mp4\r\nFormat                                   : MPEG-4\r\nFormat profile                           : Base Media\r\nCodec ID                                 : isom (isom/iso2/avc1/mp41)\r\nFile size                                : 1.04 GiB\r\nDuration                                 : 1h 39mn\r\nOverall bit rate                         : 1 491 Kbps\r\nMovie name                               : ADDAMSFAMILY\r\nGenre                                    : Comedy\r\nWriting application                      : Lavf54.6.100\r\n\r\nVideo\r\nID                                       : 1\r\nFormat                                   : AVC\r\nFormat/Info                              : Advanced Video Codec\r\nFormat profile                           :   \r\nFormat settings, CABAC                   : No\r\nFormat settings, ReFrames                : 6 frames\r\nFormat settings, GOP                     : M=1, N=60\r\nCodec ID                                 : avc1\r\nCodec ID/Info                            : Advanced Video Coding\r\nDuration                                 : 1h 39mn\r\nBit rate                                 : 1 199 Kbps\r\nWidth                                    : 720 pixels\r\nHeight                                   : 404 pixels\r\nDisplay aspect ratio                     : 16:9\r\nFrame rate mode                          : Constant\r\nFrame rate                               : 29.970 (30000/1001) fps\r\nColor space                              : YUV\r\nChroma subsampling                       : 4:2:0\r\nBit depth                                : 8 bits\r\nScan type                                : Progressive\r\nBits/(Pixel*Frame)                       : 0.138\r\nStream size                              : 854 MiB (80%)\r\n\r\nAudio\r\nID                                       : 2\r\nFormat                                   : AAC\r\nFormat/Info                              : Advanced Audio Codec\r\nFormat profile                           : LC\r\nCodec ID                                 : 40\r\nDuration                                 : 1h 39mn\r\nBit rate mode                            : Constant\r\nBit rate                                 : 288 Kbps\r\nChannel(s)                               : 2 channels\r\nChannel(s)_Original                      : 6 channels\r\nChannel positions                        : Front: L C R, Side: L R, LFE\r\nSampling rate                            : 44.1 KHz\r\nFrame rate                               : 43.066 fps (1024 spf)\r\nCompression mode                         : Lossy\r\nStream size                              : 203 MiB (19%)\r\nDefault                                  : Yes\r\nAlternate group                          : 1","torrent":{"xt":"urn:btih:9fc161fec37b717839d765ee2ed036ea9dec4cba","amp;dn":"The+Addams+Family%281991%29MPEG-4%5BDaScubaDude%5D","amp;tr":["udp%3A%2F%2Ftracker.leechers-paradise.org%3A6969","udp%3A%2F%2Fzer0day.ch%3A1337","udp%3A%2F%2Fopen.demonii.com%3A1337","udp%3A%2F%2Ftracker.coppersurfer.tk%3A6969","udp%3A%2F%2Fexodus.desync.com%3A6969"],"infoHash":"9fc161fec37b717839d765ee2ed036ea9dec4cba","infoHashBuffer":{"type":"Buffer","data":[159,193,97,254,195,123,113,120,57,215,101,238,46,208,54,234,157,236,76,186]},"announce":[],"urlList":[]}}